<svg width="480" height="360" viewBox="0 0 480 360" fill="none" xmlns="http://www.w3.org/2000/svg" role="img" aria-label="Illustration of a person next to a growing stack of savings coins">
  <rect x="0" y="0" width="480" height="360" rx="24" fill="#E7F1FA" />
  <circle cx="380" cy="90" r="44" fill="#C9962B" opacity="0.16" />

  <!-- figure -->
  <path d="M120 300c0-38 22-64 54-64s54 26 54 64" fill="#0B5FA3" />
  <circle cx="174" cy="204" r="32" fill="#0B5FA3" />
  <circle cx="163" cy="199" r="3" fill="#FFFFFF" />
  <circle cx="185" cy="199" r="3" fill="#FFFFFF" />
  <path d="M164 214q10 7 20 0" stroke="#FFFFFF" stroke-width="2.5" stroke-linecap="round" fill="none" />

  <!-- coin stack -->
  <ellipse cx="300" cy="286" rx="46" ry="12" fill="#C9962B" />
  <ellipse cx="300" cy="266" rx="46" ry="12" fill="#DDAE49" />
  <ellipse cx="300" cy="246" rx="46" ry="12" fill="#C9962B" />
  <ellipse cx="300" cy="226" rx="46" ry="12" fill="#DDAE49" />
  <ellipse cx="300" cy="206" rx="46" ry="12" fill="#C9962B" />
  <text x="300" y="211" font-family="sans-serif" font-size="14" fill="#073A66" text-anchor="middle" opacity="0.6">₹</text>

  <!-- growth arrow -->
  <path d="M356 236l24-30 20 14 30-38" stroke="#0E9384" stroke-width="4" stroke-linecap="round" stroke-linejoin="round" fill="none" />
  <path d="M414 182h16v16" stroke="#0E9384" stroke-width="4" stroke-linecap="round" stroke-linejoin="round" fill="none" />
</svg>
